<svg id="Layer_1" data-name="Layer 1" xmlns="http://www.w3.org/2000/svg" viewBox="0 0 2929.06 840"><defs><style>.cls-1{fill:#fff;stroke:#77c79b;stroke-width:40px;}.cls-1,.cls-4{stroke-miterlimit:10;}.cls-2{fill:#010101;}.cls-3{fill:#231f20;}.cls-4{fill:none;stroke:#fff;stroke-width:51px;}</style></defs><circle class="cls-1" cx="420" cy="420" r="400"/><g id="Icon"><path class="cls-2" d="M520.4,305.26H479.67V213.05a22.37,22.37,0,0,0-22.29-22.5h-74.8a22.37,22.37,0,0,0-22.3,22.5v92.21H319.55a29.2,29.2,0,0,0-29.2,29.2v270.8a29.19,29.19,0,0,0,29.2,29.19h21.26a20,20,0,0,0,38.66,0h81a20,20,0,0,0,38.68,0h21.25a29.2,29.2,0,0,0,29.21-29.19V334.46A29.26,29.26,0,0,0,520.4,305.26ZM390.11,244.43a9,9,0,0,1,8.87-9.09h42a9,9,0,0,1,8.87,9.09v60.83H390.1V244.43Zm119.63,150.4H330.19a14.94,14.94,0,1,1,0-29.87H509.74a14.94,14.94,0,1,1,0,29.87Z"/></g><g id="Text"><path class="cls-3" d="M1165.48,484.8v52H948.68v-280h211.6v52h-147.2v60.8h130V420h-130v64.8Z"/><path class="cls-3" d="M1374.67,342.2q26.8,23.81,26.8,71.8V536.8h-58.4V510q-17.6,30-65.6,30-24.79,0-43-8.4t-27.8-23.2a60.4,60.4,0,0,1-9.6-33.6q0-30,22.6-47.2t69.8-17.2h49.6q0-20.4-12.4-31.4t-37.2-11a108.62,108.62,0,0,0-33.8,5.4,89.42,89.42,0,0,0-28.2,14.6l-22.4-43.6q17.6-12.4,42.2-19.2a189.19,189.19,0,0,1,50.6-6.8Q1347.87,318.4,1374.67,342.2Zm-53.2,148.4a40.48,40.48,0,0,0,17.6-21.8v-22h-42.8q-38.4,0-38.4,25.2,0,12,9.4,19t25.8,7Q1309.08,498,1321.47,490.6Z"/><path class="cls-3" d="M1477.87,533.4q-25.61-6.6-40.8-16.6l20.8-44.8q14.4,9.19,34.8,15a145.71,145.71,0,0,0,40,5.8q39.6,0,39.6-19.6,0-9.19-10.8-13.2t-33.2-6.8q-26.4-4-43.6-9.2a67.66,67.66,0,0,1-29.8-18.4q-12.6-13.2-12.6-37.6a58.87,58.87,0,0,1,11.8-36.2q11.79-15.8,34.4-24.6t53.4-8.8a209.81,209.81,0,0,1,45.4,5q22.59,5,37.4,13.8l-20.8,44.4a124.16,124.16,0,0,0-62-16q-20,0-30,5.6t-10,14.4q0,10,10.8,14t34.4,7.6q26.4,4.4,43.2,9.4a64.89,64.89,0,0,1,29.2,18.2q12.39,13.2,12.4,36.8a56.83,56.83,0,0,1-12,35.6q-12,15.6-35,24.2t-54.6,8.6A209,209,0,0,1,1477.87,533.4Z"/><path class="cls-3" d="M1879.87,321.6,1782.67,550q-14.81,37.2-36.6,52.4t-52.6,15.2a109.44,109.44,0,0,1-33.2-5.2q-16.41-5.21-26.8-14.4l22.8-44.4a53.66,53.66,0,0,0,16.6,10,51.68,51.68,0,0,0,18.6,3.6q12.79,0,20.8-6.2t14.4-20.6l.8-2-93.2-216.8h64.4l60.4,146,60.8-146Z"/><path class="cls-3" d="M2266.26,416.6q13.59,17.81,13.6,43.8,0,36.8-28.6,56.6t-83.4,19.8h-144.8v-280h136.8q51.19,0,78.6,19.6t27.4,53.2q0,20.4-9.8,36.4a68.66,68.66,0,0,1-27.4,25.2Q2252.66,398.8,2266.26,416.6Zm-178.8-111v66h64.4q24,0,36.4-8.4t12.4-24.8q0-16.39-12.4-24.6t-36.4-8.2Zm114.2,174q13-8.4,13-26,0-34.8-51.6-34.8h-75.6V488h75.6Q2188.65,488,2201.66,479.6Z"/><path class="cls-3" d="M2324.66,240h62.4V536.8h-62.4Z"/><path class="cls-3" d="M2486.46,525.8a105.56,105.56,0,0,1-42.2-39.4q-15.21-25.2-15.2-57.2t15.2-57.2a105.56,105.56,0,0,1,42.2-39.4q27-14.21,61-14.2t60.8,14.2a106,106,0,0,1,42,39.4q15.19,25.2,15.2,57.2t-15.2,57.2a106,106,0,0,1-42,39.4q-26.81,14.21-60.8,14.2T2486.46,525.8Zm100.4-53.2q15.39-16.2,15.4-43.4t-15.4-43.4q-15.41-16.2-39.4-16.2t-39.6,16.2q-15.6,16.2-15.6,43.4t15.6,43.4q15.6,16.2,39.6,16.2T2586.86,472.6Z"/><path class="cls-3" d="M2929.06,321.6V500.8q0,59.19-30.8,88t-90,28.8a225.33,225.33,0,0,1-59.2-7.6q-28-7.61-46.4-22l24.8-44.8q13.59,11.19,34.4,17.8a136.83,136.83,0,0,0,41.6,6.6q32.4,0,47.8-14.6t15.4-44.2v-9.2q-24.4,26.8-68,26.8-29.61,0-54.2-13a99.12,99.12,0,0,1-39-36.6q-14.4-23.6-14.4-54.4t14.4-54.4a99.12,99.12,0,0,1,39-36.6q24.6-13,54.2-13,46.8,0,71.2,30.8V321.6Zm-77.4,139q15.8-14.6,15.8-38.2t-15.8-38.2q-15.81-14.59-40.6-14.6t-40.8,14.6q-16,14.6-16,38.2t16,38.2q16,14.59,40.8,14.6T2851.66,460.6Z"/></g><line class="cls-4" x1="1360.67" y1="310.2" x2="1322.2" y2="548.39"/></svg>