<?xml version="1.0" standalone="no"?>
<!DOCTYPE svg PUBLIC "-//W3C//DTD SVG 20010904//EN"
 "http://www.w3.org/TR/2001/REC-SVG-20010904/DTD/svg10.dtd">
<svg version="1.0" xmlns="http://www.w3.org/2000/svg"
 width="700.000000pt" height="700.000000pt" viewBox="0 0 700.000000 700.000000"
 preserveAspectRatio="xMidYMid meet">
<metadata>
Created by potrace 1.14, written by Peter Selinger 2001-2017
</metadata>
<g transform="translate(0.000000,700.000000) scale(0.100000,-0.100000)"
fill="#000000" stroke="none">
<path d="M4180 6798 c-120 -47 -210 -179 -210 -306 0 -147 43 -208 260 -372
18 -14 90 -69 159 -123 69 -54 163 -126 208 -160 46 -34 82 -64 80 -67 -1 -3
-53 -108 -116 -235 -99 -201 -113 -236 -113 -281 -1 -62 19 -101 74 -149 108
-92 165 -113 227 -81 15 8 97 104 181 213 84 109 156 201 160 206 3 4 56 -30
116 -77 l110 -84 93 -229 c59 -145 101 -236 117 -250 34 -31 86 -44 131 -31
36 10 93 59 93 81 0 6 29 102 66 213 l65 203 199 126 c186 118 200 129 215
169 13 34 14 51 6 82 -21 78 -70 103 -228 119 -32 3 -69 8 -83 10 -31 6 -59
10 -175 26 l-90 12 -107 81 c-59 44 -107 84 -108 87 0 3 68 93 151 200 83 107
155 205 161 219 21 51 5 117 -37 155 -19 18 -89 70 -119 89 -37 24 -111 28
-155 10 -28 -12 -105 -70 -157 -119 -6 -5 -35 -31 -65 -57 -30 -25 -67 -58
-84 -73 -62 -55 -112 -95 -118 -95 -4 0 -141 103 -304 230 -164 126 -318 240
-343 251 -67 33 -187 36 -260 7z m215 -168 c20 -12 41 -27 48 -34 6 -6 104
-83 217 -169 113 -87 212 -163 220 -170 101 -82 180 -137 202 -141 37 -6 43
-2 368 284 36 32 78 69 95 83 l30 25 37 -27 c21 -14 37 -32 35 -38 -3 -17
-260 -352 -270 -352 -4 -1 -25 10 -45 24 -47 32 -86 32 -118 0 -20 -20 -24
-34 -22 -62 3 -31 12 -44 58 -81 30 -24 64 -52 75 -61 11 -9 47 -36 80 -61 33
-25 101 -77 152 -117 51 -39 100 -74 110 -77 10 -3 106 -17 213 -31 107 -15
196 -28 198 -30 2 -2 -38 -29 -88 -62 -50 -32 -126 -80 -168 -108 l-77 -50
-60 -180 c-33 -99 -63 -186 -66 -194 -3 -8 -22 28 -43 80 -21 52 -44 108 -51
124 -7 17 -27 64 -44 105 l-31 76 -142 109 c-291 226 -318 245 -349 245 -41 0
-79 -40 -79 -81 0 -25 9 -41 41 -70 27 -25 38 -42 33 -51 -11 -17 -243 -319
-260 -337 -10 -11 -18 -9 -48 15 -20 16 -36 33 -36 38 0 5 57 124 126 265 70
140 127 262 129 270 5 35 -31 73 -192 196 -92 72 -175 135 -183 142 -8 7 -82
64 -165 128 -172 132 -197 165 -190 247 10 125 152 195 260 128z"/>
<path d="M4507 6382 c-54 -33 -55 -122 -1 -157 68 -45 163 10 149 85 -9 47
-18 61 -45 75 -38 19 -68 19 -103 -3z"/>
<path d="M4761 6204 c-79 -33 -72 -151 10 -176 71 -21 131 29 123 101 -8 67
-70 102 -133 75z"/>
<path d="M4988 6013 c-34 -21 -46 -49 -41 -93 6 -43 18 -59 61 -77 27 -11 37
-11 66 1 69 29 82 113 24 161 -34 29 -72 31 -110 8z"/>
<path d="M5237 5834 c-26 -14 -57 -60 -57 -84 0 -27 33 -78 56 -89 86 -39 172
46 129 129 -25 49 -81 68 -128 44z"/>
<path d="M3333 6433 c-12 -2 -34 -18 -49 -36 -33 -39 -28 -90 11 -124 24 -22
36 -23 168 -23 78 -1 192 -3 252 -6 98 -4 112 -2 132 15 32 27 42 59 29 99
-12 39 -39 60 -87 68 -43 6 -426 12 -456 7z"/>
<path d="M2700 6335 c-115 -31 -209 -61 -309 -98 -64 -24 -88 -39 -102 -61
-36 -59 6 -139 73 -139 18 0 83 18 143 40 61 22 148 50 195 62 117 32 147 46
163 78 25 50 1 113 -50 131 -22 7 -48 4 -113 -13z"/>
<path d="M1821 5949 c-53 -20 -292 -198 -370 -276 -39 -39 -43 -47 -38 -80 9
-51 42 -83 87 -83 38 0 55 10 166 101 38 31 112 86 165 122 53 37 100 75 104
85 19 46 16 71 -12 101 -31 33 -65 43 -102 30z"/>
<path d="M1074 5270 c-27 -10 -68 -58 -147 -171 -165 -238 -185 -293 -126
-343 34 -29 83 -34 111 -12 10 7 52 67 94 132 41 65 100 151 130 190 30 39 57
85 60 102 7 34 -19 89 -47 97 -34 11 -54 12 -75 5z"/>
<path d="M3388 5265 c-2 -2 -40 -6 -86 -9 -46 -4 -89 -9 -95 -11 -7 -2 -29 -6
-49 -9 -21 -3 -59 -11 -85 -17 -27 -6 -56 -12 -65 -14 -101 -21 -365 -127
-457 -184 -28 -17 -53 -31 -55 -31 -11 0 -159 -103 -227 -158 -266 -214 -471
-492 -598 -808 -60 -152 -97 -298 -126 -494 -3 -19 -7 -105 -9 -190 -7 -258
31 -488 120 -729 195 -522 621 -952 1139 -1149 123 -47 280 -90 400 -108 17
-3 44 -7 60 -10 72 -13 394 -12 495 2 728 98 1338 584 1595 1269 34 92 81 261
90 324 2 14 9 58 15 96 22 130 20 389 -4 555 -46 315 -187 648 -381 900 -337
435 -807 701 -1355 766 -53 6 -317 13 -322 9z m46 -193 c3 -15 12 -67 20 -117
8 -49 18 -106 21 -125 30 -182 41 -261 38 -281 -6 -38 -30 -66 -86 -102 -193
-124 -320 -212 -343 -240 -72 -86 -80 -158 -40 -361 44 -218 67 -248 272 -347
77 -38 151 -80 165 -95 26 -27 31 -78 17 -159 -65 -370 -75 -416 -96 -441 -38
-46 -98 -57 -153 -28 -24 12 -43 42 -94 148 -69 143 -101 181 -184 220 -41 19
-67 21 -251 23 -122 2 -225 -2 -255 -9 -47 -10 -103 -44 -279 -168 -32 -23
-73 -44 -91 -47 -20 -3 -88 8 -171 28 -77 18 -141 33 -144 34 -49 11 -67 18
-67 28 -1 7 -4 53 -8 102 -29 341 28 647 175 950 58 119 138 248 208 335 107
133 290 298 435 393 182 120 481 237 671 262 24 4 66 10 93 13 26 4 69 9 95
10 43 2 47 0 52 -26z m316 13 c14 -3 43 -8 65 -11 140 -21 369 -99 513 -175
201 -106 346 -218 505 -389 l58 -62 -85 -59 c-94 -66 -155 -129 -185 -192 -28
-58 -81 -259 -88 -332 -11 -121 46 -258 143 -342 64 -56 105 -128 109 -193 3
-55 -91 -486 -118 -535 -8 -16 -52 -68 -96 -115 -139 -145 -161 -223 -136
-465 3 -33 8 -67 10 -75 2 -8 7 -50 10 -93 4 -43 8 -86 10 -96 2 -10 6 -51 10
-92 l6 -74 -43 -26 c-184 -114 -431 -207 -616 -235 -20 -3 -44 -7 -52 -9 -57
-17 -340 -25 -430 -14 -30 4 -76 10 -102 13 -420 54 -848 297 -1128 638 -105
128 -154 205 -230 357 -66 133 -135 331 -115 331 4 0 60 -14 126 -30 219 -56
255 -49 439 80 69 48 136 93 150 100 18 10 78 13 215 13 247 0 237 6 317 -163
71 -150 123 -207 211 -232 178 -51 345 61 373 250 3 20 12 75 21 122 8 47 17
96 19 110 3 14 9 48 14 75 28 148 30 171 13 234 -12 48 -41 99 -78 137 -20 21
-65 46 -187 105 -67 32 -133 70 -145 83 -23 25 -49 130 -69 277 -8 62 12 98
78 141 29 20 112 74 184 121 249 163 258 188 195 572 -23 138 -41 254 -41 257
0 7 100 2 150 -7z m1297 -862 c135 -229 218 -476 248 -743 8 -70 9 -302 1
-355 -3 -22 -8 -59 -11 -82 -2 -23 -14 -84 -25 -135 -56 -249 -165 -485 -322
-695 -75 -101 -271 -303 -294 -303 -12 0 -20 35 -16 71 1 3 -3 35 -8 70 -31
222 -33 367 -7 419 9 19 52 71 95 115 42 45 89 103 103 130 27 49 35 81 103
380 63 273 41 379 -108 531 -76 78 -102 124 -109 194 -5 46 56 282 84 327 21
34 182 162 204 163 6 0 34 -39 62 -87z"/>
<path d="M5944 5150 c-12 -5 -29 -19 -38 -32 -29 -41 -20 -77 44 -173 33 -49
90 -143 127 -207 65 -114 88 -138 133 -138 46 0 76 27 94 82 4 14 -46 128 -87
193 -111 181 -173 265 -200 275 -35 12 -44 12 -73 0z"/>
<path d="M561 4363 c-30 -31 -73 -153 -115 -333 -42 -176 -42 -176 -1 -217 31
-31 40 -35 72 -30 59 10 72 32 105 173 16 70 43 171 60 223 17 53 30 110 30
126 -3 40 -52 85 -93 85 -20 0 -40 -9 -58 -27z"/>
<path d="M6380 4237 c-14 -7 -31 -26 -39 -42 -13 -26 -11 -41 18 -160 18 -71
41 -179 51 -240 23 -126 43 -155 106 -155 43 0 94 45 94 82 0 67 -77 424 -102
472 -26 51 -78 68 -128 43z"/>
<path d="M445 3393 c-79 -15 -90 -45 -81 -236 3 -84 8 -164 10 -177 3 -14 7
-52 11 -85 4 -33 16 -72 26 -87 37 -51 125 -45 154 11 13 25 13 73 0 156 -3
17 -8 98 -11 180 -4 85 -12 164 -19 182 -15 34 -58 62 -90 56z"/>
<path d="M6505 3380 c-45 -18 -53 -45 -56 -185 -1 -55 -8 -153 -15 -218 -14
-135 -8 -169 37 -192 35 -19 53 -19 89 0 38 19 46 37 55 110 4 33 9 71 11 85
2 14 6 98 10 187 l7 162 -31 30 c-31 32 -66 38 -107 21z"/>
<path d="M573 2380 c-45 -27 -54 -64 -33 -130 39 -120 150 -370 184 -413 38
-48 126 -34 150 25 18 41 16 50 -34 156 -42 87 -92 206 -124 295 -27 73 -87
101 -143 67z"/>
<path d="M6333 2380 c-16 -10 -35 -33 -42 -51 -45 -120 -90 -226 -127 -302
-50 -102 -57 -131 -38 -169 16 -30 23 -36 63 -48 56 -16 85 11 142 129 64 131
140 327 141 361 2 73 -77 118 -139 80z"/>
<path d="M1061 1496 c-29 -16 -50 -52 -51 -86 0 -31 73 -126 213 -273 106
-113 138 -137 182 -137 40 0 85 50 85 95 0 32 -11 47 -98 138 -54 56 -127 136
-162 177 -85 101 -115 116 -169 86z"/>
<path d="M5849 1492 c-14 -9 -52 -48 -84 -87 -32 -38 -103 -116 -157 -172 -87
-91 -98 -106 -98 -138 0 -51 44 -95 96 -95 35 0 46 8 143 108 124 126 228 253
237 288 10 38 -15 85 -52 100 -43 18 -54 18 -85 -4z"/>
<path d="M1814 820 c-49 -20 -70 -93 -39 -137 28 -40 412 -253 457 -253 39 0
77 29 89 68 19 64 -2 90 -118 147 -54 27 -150 80 -214 117 -115 68 -135 74
-175 58z"/>
<path d="M5095 809 c-22 -12 -51 -28 -65 -36 -104 -61 -157 -89 -238 -130 -91
-46 -122 -75 -122 -117 0 -30 23 -64 54 -81 41 -22 69 -14 225 67 171 89 264
150 279 182 21 43 8 93 -31 116 -40 25 -54 25 -102 -1z"/>
<path d="M2719 401 c-49 -49 -35 -124 28 -149 35 -14 237 -55 324 -66 151 -19
163 -18 191 3 39 31 50 72 30 113 -21 40 -49 55 -127 63 -67 7 -84 10 -170 24
-84 14 -115 20 -155 31 -60 17 -89 12 -121 -19z"/>
<path d="M4130 414 c-63 -16 -229 -43 -310 -51 -66 -6 -97 -24 -114 -65 -17
-39 -10 -71 20 -99 30 -28 77 -32 189 -14 44 7 98 15 120 18 72 10 184 36 219
51 64 26 76 97 27 147 -33 33 -62 35 -151 13z"/>
</g>
</svg>
