<?xml version="1.0" standalone="no"?>
<!DOCTYPE svg PUBLIC "-//W3C//DTD SVG 20010904//EN"
 "http://www.w3.org/TR/2001/REC-SVG-20010904/DTD/svg10.dtd">
<svg version="1.0" xmlns="http://www.w3.org/2000/svg"
 width="3501.000000pt" height="3501.000000pt" viewBox="0 0 3501.000000 3501.000000"
 preserveAspectRatio="xMidYMid meet">
<metadata>
Created by potrace 1.14, written by Peter Selinger 2001-2017
</metadata>
<g transform="translate(0.000000,3501.000000) scale(0.100000,-0.100000)"
fill="#000000" stroke="none">
<path d="M15825 27059 c-133 -17 -295 -77 -405 -152 -66 -45 -186 -163 -236
-234 -56 -77 -116 -204 -145 -308 l-23 -80 -3 -1997 -3 -1997 -928 -4 c-1013
-4 -963 -1 -1152 -63 -419 -139 -730 -498 -814 -943 -14 -75 -16 -649 -16
-5851 0 -5161 2 -5777 15 -5856 87 -495 467 -882 964 -984 92 -18 137 -20 608
-20 l508 0 25 -71 c39 -117 103 -214 204 -314 162 -159 321 -230 546 -242 146
-7 267 18 404 86 199 98 338 255 420 473 l24 63 1683 0 1683 0 23 -63 c46
-130 93 -202 203 -313 95 -96 115 -110 210 -156 146 -72 216 -88 375 -87 137
0 202 12 317 58 103 42 171 89 268 186 104 104 155 182 198 302 l27 77 545 4
c519 3 549 4 620 25 251 70 408 160 575 327 173 173 274 358 337 615 11 45 13
1063 13 5885 0 4822 -2 5840 -13 5885 -42 173 -122 354 -210 473 -207 282
-514 458 -864 496 -61 7 -417 11 -958 11 l-860 0 0 1954 c0 2135 3 2032 -58
2203 -49 139 -106 227 -222 343 -79 79 -126 117 -190 153 -105 58 -236 102
-355 116 -110 13 -3232 13 -3340 0z m2677 -1887 c81 -33 160 -108 200 -190
l33 -67 3 -1312 2 -1313 -1240 0 -1240 0 2 1313 3 1312 27 57 c53 113 160 198
275 218 26 4 460 7 963 6 l915 -1 57 -23z m2938 -5410 c202 -73 348 -233 400
-438 38 -146 18 -304 -55 -442 -48 -91 -111 -161 -200 -220 -84 -57 -168 -88
-275 -102 -102 -13 -7518 -13 -7620 0 -106 14 -188 44 -272 99 -171 112 -266
280 -276 486 -13 298 164 542 453 626 57 17 273 18 3920 16 l3860 -2 65 -23z"/>
</g>
</svg>
